# Blender 4.0.1
# www.blender.org
mtllib tank.mtl
o Cube
v 4.971470 2.596996 -1.369231
v 3.361781 2.541756 -1.873096
v 2.346284 0.325958 -1.474747
v 3.911347 0.325958 -0.882433
v 3.565949 2.588606 1.862086
v 5.124011 2.635996 1.351047
v 3.911347 0.325958 0.883098
v 2.342168 0.325958 1.474747
v -2.372654 2.371612 -1.559021
v -3.911347 2.325958 -0.888504
v -3.911347 0.325958 -0.888504
v -2.356505 0.325958 -1.474747
v -3.911347 2.325958 0.888504
v -2.370975 2.380065 1.554541
v -2.356505 0.325958 1.474747
v -3.911347 0.325958 0.888504
vn -0.0000 -1.0000 -0.0000
vn -1.0000 -0.0000 -0.0000
vn -0.0268 -0.1001 0.9946
vn -0.0324 0.9994 -0.0072
vn 0.8955 -0.4444 -0.0266
vn 0.3140 -0.3215 -0.8933
vn -0.3747 -0.0196 0.9269
vn 0.3178 -0.3352 0.8869
vn -0.3760 -0.0208 -0.9264
vn -0.0282 -0.1060 -0.9940
vt 0.125000 0.549690
vt 0.174690 0.500000
vt 0.324983 0.500000
vt 0.375000 0.550205
vt 0.375000 0.699852
vt 0.324852 0.750000
vt 0.174690 0.750000
vt 0.125000 0.700310
vt 0.375000 0.049690
vt 0.625000 0.049690
vt 0.625000 0.200310
vt 0.375000 0.200310
vt 0.375000 0.800148
vt 0.625000 0.793869
vt 0.625000 0.957536
vt 0.375000 0.950310
vt 0.625000 0.537796
vt 0.669538 0.500000
vt 0.831533 0.500000
vt 0.875000 0.549690
vt 0.875000 0.700310
vt 0.832536 0.750000
vt 0.668869 0.750000
vt 0.625000 0.711995
vt 0.375000 0.550205
vt 0.375000 0.699852
vt 0.375000 0.449983
vt 0.625000 0.455462
vt 0.375000 0.000000
vt 0.625000 0.000000
vt 0.625000 0.293467
vt 0.375000 0.299690
s 0
usemtl Material
f 11/1/1 12/2/1 3/3/1 4/4/1 7/5/1 8/6/1 15/7/1 16/8/1
f 16/9/2 13/10/2 10/11/2 11/12/2
f 8/13/3 5/14/3 14/15/3 15/16/3
f 1/17/4 2/18/4 9/19/4 10/20/4 13/21/4 14/22/4 5/23/4 6/24/4
f 4/25/5 1/17/5 6/24/5 7/26/5
f 1/17/6 4/25/6 3/27/6 2/28/6
f 15/29/7 14/30/7 13/10/7 16/9/7
f 5/14/8 8/13/8 7/26/8 6/24/8
f 9/31/9 12/32/9 11/12/9 10/11/9
f 12/32/10 9/31/10 2/28/10 3/27/10
o Cube.001
v -2.032859 2.780338 -0.015694
v -2.522239 2.722725 0.067982
v -2.572392 2.756435 0.070835
v -1.438651 2.921419 0.072846
v -1.585440 2.866543 -0.013886
v -1.826854 2.888231 0.076702
v -2.632174 2.752151 0.152430
v -2.595133 2.721134 0.155459
v -2.142886 2.776118 0.217640
v -1.835701 2.891810 0.112418
v -1.587685 2.866510 0.192181
v -1.438033 2.921419 0.098870
v 6.166113 2.746658 -0.107830
v 6.164177 2.801847 -0.189329
v 6.164177 2.866233 -0.189329
v 6.166114 2.921419 -0.107787
v 6.168669 2.801848 -0.000221
v 6.166731 2.746658 -0.081810
v 6.166732 2.921419 -0.081763
v 6.168669 2.866233 -0.000221
vn -0.0000 1.0000 -0.0000
vn 0.9997 -0.0000 -0.0237
vn 0.0253 0.0731 0.9970
vn 0.0025 -0.9999 -0.0124
vn -0.1746 0.9799 -0.0963
vn -0.1507 -0.1413 -0.9784
vn -0.0811 0.8986 -0.4313
vn -0.1291 -0.0575 0.9900
vn -0.0515 0.8946 0.4439
vn -0.0125 0.8418 -0.5396
vn -0.1394 0.7841 -0.6048
vn -0.1108 0.8135 0.5710
vn 0.0177 -0.8199 0.5723
vn -0.5336 -0.7200 -0.4437
vn 0.0131 0.8411 0.5407
vn -0.0099 -0.8119 -0.5837
vn -0.0810 0.9944 -0.0684
vn -0.0219 0.0771 -0.9968
vt 0.125000 0.607798
vt 0.368104 0.607798
vt 0.368104 0.642202
vt 0.125000 0.642202
vt 0.375000 0.107798
vt 0.453945 0.000000
vt 0.546050 0.000000
vt 0.625000 0.107860
vt 0.625000 0.142259
vt 0.546051 0.250000
vt 0.453945 0.250000
vt 0.375000 0.142202
vt 0.444004 0.761627
vt 0.555760 0.761381
vt 0.546050 1.000000
vt 0.453945 1.000000
vt 0.631452 0.581982
vt 0.875000 0.607741
vt 0.875000 0.642140
vt 0.631428 0.667890
vt 0.414694 0.601822
vt 0.583794 0.583573
vt 0.584734 0.665509
vt 0.413951 0.647945
vt 0.498036 0.500000
vt 0.591066 0.575465
vt 0.375000 0.601169
vt 0.389125 0.500000
vt 0.591856 0.663171
vt 0.498780 0.744598
vt 0.386989 0.745431
vt 0.375000 0.635573
vt 0.375000 0.493528
vt 0.375000 0.250424
vt 0.445315 0.489494
vt 0.554490 0.489696
vt 0.875000 0.750000
vt 0.645900 0.750000
vt 0.375000 1.000000
vt 0.375000 0.757320
vt 0.643418 0.500000
vt 0.875000 0.500000
s 0
usemtl Material.001
f 32/33/11 20/34/11 28/35/11 35/36/11
f 35/37/12 36/38/12 33/39/12 34/40/12 29/41/12 30/42/12 31/43/12 32/44/12
f 27/45/13 25/46/13 33/47/13 36/48/13
f 18/49/14 29/50/14 34/51/14 24/52/14
f 22/53/15 19/54/15 23/55/15 26/56/15
f 17/57/16 18/58/16 19/54/16
f 20/59/17 21/60/17 22/53/17
f 23/55/18 24/61/18 25/62/18
f 26/56/19 27/63/19 28/64/19
f 20/65/20 32/66/20 31/43/20 21/67/20
f 19/54/21 22/53/21 21/67/21 17/68/21
f 25/46/22 27/45/22 26/56/22 23/55/22
f 24/52/23 34/51/23 33/69/23 25/70/23
f 18/49/24 24/52/24 23/55/24 19/54/24
f 35/71/25 28/72/25 27/45/25 36/48/25
f 29/50/26 18/49/26 17/73/26 30/74/26
f 28/35/27 20/34/27 22/53/27 26/56/27
f 31/43/28 30/42/28 17/68/28 21/67/28
o Cube.002
v 2.676182 2.366673 -0.924767
v 2.860678 2.230026 -0.690321
v 3.854276 2.345409 -0.690321
v 2.001781 3.041884 -0.482869
v 2.124682 2.911438 -0.796040
v 3.267743 2.910947 -0.519542
v 3.956789 2.331167 0.683127
v 2.983318 2.218122 0.683127
v 2.815368 2.350230 0.920857
v 3.291391 2.911295 0.517613
v 2.145816 2.911295 0.793948
v 2.001781 3.041884 0.482869
v -2.009348 2.298138 -0.519542
v -3.136889 2.445829 -0.756679
v -3.136889 2.910069 -0.756679
v -3.136889 3.041884 -0.482869
v -2.012345 2.295392 0.517613
v -3.136889 2.445841 0.756679
v -3.136889 3.041884 0.482869
v -3.136889 2.910069 0.756679
vn -0.0000 1.0000 -0.0000
vn -1.0000 -0.0000 -0.0000
vn -0.0169 0.1120 0.9936
vn -0.0147 -0.9999 -0.0053
vn 0.6747 0.7374 -0.0311
vn 0.0958 -0.8253 -0.5565
vn 0.0861 0.9312 -0.3541
vn 0.0974 -0.8391 0.5351
vn 0.0849 0.9321 0.3520
vn -0.0017 0.9129 -0.4082
vn 0.1971 0.4386 -0.8768
vn 0.1989 0.4551 0.8680
vn -0.0277 -0.8911 0.4530
vn 0.1153 -0.9931 -0.0189
vn -0.0016 0.9122 0.4097
vn -0.1312 -0.9913 -0.0012
vn -0.0268 -0.8873 -0.4604
vn 0.1018 0.9948 -0.0014
vn -0.0178 0.1170 -0.9930
vt 0.125000 0.545232
vt 0.329768 0.545232
vt 0.329768 0.704768
vt 0.125000 0.704768
vt 0.375000 0.045232
vt 0.420232 0.000000
vt 0.579530 0.000000
vt 0.579535 0.250000
vt 0.420232 0.250000
vt 0.375000 0.204768
vt 0.415414 0.793890
vt 0.584240 0.790912
vt 0.579530 1.000000
vt 0.420232 1.000000
vt 0.664416 0.536525
vt 0.835565 0.542334
vt 0.836070 0.707646
vt 0.663958 0.713411
vt 0.414435 0.542334
vt 0.585584 0.536525
vt 0.586042 0.713411
vt 0.413930 0.707646
vt 0.574739 0.503785
vt 0.615488 0.538495
vt 0.375000 0.545232
vt 0.410053 0.500000
vt 0.614967 0.710886
vt 0.574921 0.745732
vt 0.408441 0.750000
vt 0.375000 0.704768
vt 0.125000 0.500000
vt 0.334665 0.500000
vt 0.416067 0.455970
vt 0.583603 0.458548
vt 0.875000 0.750000
vt 0.676191 0.750000
vt 0.335507 0.750000
vt 0.125000 0.750000
vt 0.875000 0.500000
vt 0.675451 0.500000
s 0
usemtl Material.002
f 52/75/29 55/78/29 48/77/29 40/76/29
f 55/79/30 52/84/30 51/83/30 50/82/30 54/81/30 56/80/30
f 47/85/31 56/88/31 54/87/31 45/86/31
f 38/89/32 44/92/32 53/91/32 49/90/32
f 42/93/33 46/96/33 43/95/33 39/94/33
f 37/97/34 39/94/34 38/98/34
f 40/99/35 42/93/35 41/100/35
f 43/95/36 45/102/36 44/101/36
f 46/96/37 48/104/37 47/103/37
f 40/76/38 41/106/38 51/105/38 52/75/38
f 39/94/39 37/108/39 41/107/39 42/93/39
f 45/86/40 43/95/40 46/96/40 47/85/40
f 44/92/41 45/110/41 54/109/41 53/91/41
f 38/89/42 39/94/42 43/95/42 44/92/42
f 55/78/43 56/112/43 47/111/43 48/77/43
f 53/91/44 54/109/44 50/113/44 49/90/44
f 49/90/45 50/113/45 37/114/45 38/89/45
f 48/77/46 46/96/46 42/93/46 40/76/46
f 51/83/47 41/107/47 37/108/47 50/82/47
o Cube.004
v -3.577150 0.144641 0.933260
v -3.577150 0.196115 0.984734
v -3.577150 0.251195 0.984734
v -3.577150 0.302669 0.933260
v -3.577150 0.196115 0.826705
v -3.577150 0.144641 0.878179
v -3.577150 0.302669 0.878179
v -3.577150 0.251195 0.826705
v 3.863603 0.196115 0.984734
v 3.863603 0.144641 0.933260
v 3.863603 0.302669 0.933260
v 3.863603 0.251195 0.984734
v 3.863603 0.144641 0.878179
v 3.863603 0.196115 0.826705
v 3.863603 0.251195 0.826705
v 3.863603 0.302669 0.878179
vn -0.0000 -0.0000 1.0000
vn 1.0000 -0.0000 -0.0000
vn -0.0000 1.0000 -0.0000
vn -1.0000 -0.0000 -0.0000
vn -0.0000 -0.0000 -1.0000
vn -0.0000 -0.7071 -0.7071
vn -0.0000 0.7071 -0.7071
vn -0.0000 -0.7071 0.7071
vn -0.0000 0.7071 0.7071
vn -0.0000 -1.0000 -0.0000
vt 0.456431 0.750000
vt 0.543569 0.750000
vt 0.543569 1.000000
vt 0.456431 1.000000
vt 0.375000 0.581431
vt 0.456431 0.500000
vt 0.543569 0.500000
vt 0.625000 0.581431
vt 0.625000 0.668569
vt 0.375000 0.668569
vt 0.875000 0.581431
vt 0.875000 0.668569
vt 0.375000 0.081431
vt 0.456431 0.000000
vt 0.543569 0.000000
vt 0.625000 0.081431
vt 0.625000 0.168569
vt 0.543569 0.250000
vt 0.456431 0.250000
vt 0.375000 0.168569
vt 0.125000 0.581431
vt 0.125000 0.500000
vt 0.375000 0.500000
vt 0.625000 0.250000
vt 0.625000 0.500000
vt 0.125000 0.668569
vt 0.375000 0.750000
vt 0.125000 0.750000
vt 0.625000 0.750000
vt 0.625000 1.000000
s 0
usemtl Material.004
f 65/115/48 68/116/48 59/117/48 58/118/48
f 69/119/49 70/120/49 71/121/49 72/122/49 67/123/49 68/116/49 65/115/49 66/124/49
f 72/122/50 63/125/50 60/126/50 67/123/50
f 57/127/51 58/128/51 59/129/51 60/130/51 63/131/51 64/132/51 61/133/51 62/134/51
f 61/133/52 64/132/52 71/121/52 70/120/52
f 69/119/53 62/135/53 61/136/53 70/137/53
f 63/138/54 72/139/54 71/121/54 64/132/54
f 57/140/55 66/124/55 65/141/55 58/142/55
f 67/143/56 60/144/56 59/117/56 68/116/56
f 62/135/57 69/119/57 66/124/57 57/140/57
o Cube.003
v -3.577150 0.144641 -0.927742
v -3.577150 0.196115 -0.876269
v -3.577150 0.251195 -0.876269
v -3.577150 0.302669 -0.927742
v -3.577150 0.196115 -1.034297
v -3.577150 0.144641 -0.982823
v -3.577150 0.302669 -0.982823
v -3.577150 0.251195 -1.034297
v 3.863603 0.196115 -0.876269
v 3.863603 0.144641 -0.927742
v 3.863603 0.302669 -0.927742
v 3.863603 0.251195 -0.876269
v 3.863603 0.144641 -0.982823
v 3.863603 0.196115 -1.034297
v 3.863603 0.251195 -1.034297
v 3.863603 0.302669 -0.982823
vn -0.0000 -0.0000 1.0000
vn 1.0000 -0.0000 -0.0000
vn -0.0000 1.0000 -0.0000
vn -1.0000 -0.0000 -0.0000
vn -0.0000 -0.0000 -1.0000
vn -0.0000 -0.7071 -0.7071
vn -0.0000 0.7071 -0.7071
vn -0.0000 -0.7071 0.7071
vn -0.0000 0.7071 0.7071
vn -0.0000 -1.0000 -0.0000
vt 0.456431 0.750000
vt 0.543569 0.750000
vt 0.543569 1.000000
vt 0.456431 1.000000
vt 0.375000 0.581431
vt 0.456431 0.500000
vt 0.543569 0.500000
vt 0.625000 0.581431
vt 0.625000 0.668569
vt 0.375000 0.668569
vt 0.875000 0.581431
vt 0.875000 0.668569
vt 0.375000 0.081431
vt 0.456431 0.000000
vt 0.543569 0.000000
vt 0.625000 0.081431
vt 0.625000 0.168569
vt 0.543569 0.250000
vt 0.456431 0.250000
vt 0.375000 0.168569
vt 0.125000 0.581431
vt 0.125000 0.500000
vt 0.375000 0.500000
vt 0.625000 0.250000
vt 0.625000 0.500000
vt 0.125000 0.668569
vt 0.375000 0.750000
vt 0.125000 0.750000
vt 0.625000 0.750000
vt 0.625000 1.000000
s 0
usemtl Material.003
f 81/145/58 84/146/58 75/147/58 74/148/58
f 85/149/59 86/150/59 87/151/59 88/152/59 83/153/59 84/146/59 81/145/59 82/154/59
f 88/152/60 79/155/60 76/156/60 83/153/60
f 73/157/61 74/158/61 75/159/61 76/160/61 79/161/61 80/162/61 77/163/61 78/164/61
f 77/163/62 80/162/62 87/151/62 86/150/62
f 85/149/63 78/165/63 77/166/63 86/167/63
f 79/168/64 88/169/64 87/151/64 80/162/64
f 73/170/65 82/154/65 81/171/65 74/172/65
f 83/173/66 76/174/66 75/147/66 84/146/66
f 78/165/67 85/149/67 82/154/67 73/170/67
